HIERARCHY
ROOT Hip
{
	OFFSET 0 1.131 0.0052
	CHANNELS 6 Xposition Yposition Zposition Xrotation Yrotation Zrotation
	JOINT Abdomen
	{
		OFFSET 0 -0.047353 -0.05
		CHANNELS 3 Xrotation Zrotation Yrotation
		JOINT Chest
		{
			OFFSET 0 0.132153 0.007439
			CHANNELS 3 Xrotation Zrotation Yrotation
			JOINT Neck
			{
				OFFSET 0 0.3078 0.006161
				CHANNELS 3 Xrotation Zrotation Yrotation
				JOINT Head_comp
				{
					OFFSET 0 0.0884 0.013
					CHANNELS 3 Xrotation Yrotation Zrotation
					End Site
					{
						OFFSET -0 0.156 0.0624
					}
				}
			}
			JOINT Left_Collar
			{
				OFFSET 0.02282 0.250342 0.017193
				CHANNELS 2 Yrotation Zrotation
				JOINT Left_Shoulder
				{
					OFFSET 0.15421 0 0
					CHANNELS 3 Xrotation Yrotation Zrotation
					JOINT Left_Forearm
					{
						OFFSET 0.265212 0 0
						CHANNELS 2 Yrotation Xrotation
						JOINT Left_Hand
						{
							OFFSET 0.27571 0 0
							CHANNELS 2 Zrotation Yrotation
							JOINT L1ProxPhalanx
							{
								OFFSET 0.014142 0.001733 0.014142
								CHANNELS 3 Yrotation Zrotation Xrotation
								JOINT L1MidPhalanx
								{
									OFFSET 0.04 0 0
									CHANNELS 1 Zrotation
									JOINT L1DistPhalanx
									{
										OFFSET 0.035 0 0
										CHANNELS 1 Zrotation
										End Site
										{
											OFFSET 0.029 -0 -0
										}
									}
								}
							}
							JOINT L2ProxPhalanx
							{
								OFFSET 0.0821037 0.001578 0.0219996
								CHANNELS 2 Yrotation Zrotation
								JOINT L2MidPhalanx
								{
									OFFSET 0.04 0 0
									CHANNELS 1 Zrotation
									JOINT L2DistPhalanx
									{
										OFFSET 0.028 0 0
										CHANNELS 1 Zrotation
										End Site
										{
											OFFSET 0.02 -0 -0
										}
									}
								}
							}
							JOINT L3ProxPhalanx
							{
								OFFSET 0.083 0 0
								CHANNELS 2 Yrotation Zrotation
								JOINT L3MidPhalanx
								{
									OFFSET 0.053 0 0
									CHANNELS 1 Zrotation
									JOINT L3DistPhalanx
									{
										OFFSET 0.03 0 0
										CHANNELS 1 Zrotation
										End Site
										{
											OFFSET 0.023 -0 -0
										}
									}
								}
							}
							JOINT L4ProxPhalanx
							{
								OFFSET 0.077274 -0.000761 -0.0207055
								CHANNELS 2 Yrotation Zrotation
								JOINT L4MidPhalanx
								{
									OFFSET 0.05 0 0
									CHANNELS 1 Zrotation
									JOINT L4DistPhalanx
									{
										OFFSET 0.03 0 0
										CHANNELS 1 Zrotation
										End Site
										{
											OFFSET 0.023 -0 -0
										}
									}
								}
							}
							JOINT L5ProxPhalanx
							{
								OFFSET 0.0675499 -0.001644 -0.039
								CHANNELS 2 Yrotation Zrotation
								JOINT L5MidPhalanx
								{
									OFFSET 0.04 0 0
									CHANNELS 1 Zrotation
									JOINT L5DistPhalanx
									{
										OFFSET 0.021 0 0
										CHANNELS 1 Zrotation
										End Site
										{
											OFFSET 0.022 -0 -0
										}
									}
								}
							}
						}
					}
				}
			}
			JOINT Right_Collar
			{
				OFFSET -0.02282 0.250342 0.017193
				CHANNELS 2 Yrotation Zrotation
				JOINT Right_Shoulder
				{
					OFFSET -0.15421 0 0
					CHANNELS 3 Xrotation Yrotation Zrotation
					JOINT Right_Forearm
					{
						OFFSET -0.265212 0 0
						CHANNELS 2 Yrotation Xrotation
						JOINT Right_Hand
						{
							OFFSET -0.27571 3e-006 0
							CHANNELS 2 Zrotation Yrotation
							JOINT R1ProxPhalanx
							{
								OFFSET -0.014142 0.001733 0.014142
								CHANNELS 3 Yrotation Zrotation Xrotation
								JOINT R1MidPhalanx
								{
									OFFSET -0.04 0 0
									CHANNELS 1 Zrotation
									JOINT R1DistPhalanx
									{
										OFFSET -0.035 0 0
										CHANNELS 1 Zrotation
										End Site
										{
											OFFSET -0.029 -0 -0
										}
									}
								}
							}
							JOINT R2ProxPhalanx
							{
								OFFSET -0.0821037 0.001578 0.0219996
								CHANNELS 2 Yrotation Zrotation
								JOINT R2MidPhalanx
								{
									OFFSET -0.04 0 0
									CHANNELS 1 Zrotation
									JOINT R2DistPhalanx
									{
										OFFSET -0.028 0 0
										CHANNELS 1 Zrotation
										End Site
										{
											OFFSET -0.02 -0 -0
										}
									}
								}
							}
							JOINT R3ProxPhalanx
							{
								OFFSET -0.083 0 0
								CHANNELS 2 Yrotation Zrotation
								JOINT R3MidPhalanx
								{
									OFFSET -0.053 0 0
									CHANNELS 1 Zrotation
									JOINT R3DistPhalanx
									{
										OFFSET -0.03 0 0
										CHANNELS 1 Zrotation
										End Site
										{
											OFFSET -0.023 -0 -0
										}
									}
								}
							}
							JOINT R4ProxPhalanx
							{
								OFFSET -0.077274 -0.000761 -0.0207055
								CHANNELS 2 Yrotation Zrotation
								JOINT R4MidPhalanx
								{
									OFFSET -0.05 0 0
									CHANNELS 1 Zrotation
									JOINT R4DistPhalanx
									{
										OFFSET -0.03 0 0
										CHANNELS 1 Zrotation
										End Site
										{
											OFFSET -0.023 -0 -0
										}
									}
								}
							}
							JOINT R5ProxPhalanx
							{
								OFFSET -0.0675499 -0.001644 -0.039
								CHANNELS 2 Yrotation Zrotation
								JOINT R5MidPhalanx
								{
									OFFSET -0.04 0 0
									CHANNELS 1 Zrotation
									JOINT R5DistPhalanx
									{
										OFFSET -0.021 0 0
										CHANNELS 1 Zrotation
										End Site
										{
											OFFSET -0.022 -0 -0
										}
									}
								}
							}
						}
					}
				}
			}
		}
	}
	JOINT Left_Thigh
	{
		OFFSET 0.1118 -0.1612 -0.0442
		CHANNELS 3 Xrotation Zrotation Yrotation
		JOINT Left_Shin
		{
			OFFSET 0 -0.477856 0
			CHANNELS 1 Xrotation
			JOINT Left_Foot
			{
				OFFSET 0 -0.431952 0
				CHANNELS 2 Xrotation Zrotation
				JOINT Left_Toe
				{
					OFFSET 0 -0.0442 0.119
					CHANNELS 1 Xrotation
					End Site
					{
						OFFSET -0 -0 0.07
					}
				}
			}
		}
	}
	JOINT Right_Thigh
	{
		OFFSET -0.1118 -0.1612 -0.0442
		CHANNELS 3 Xrotation Zrotation Yrotation
		JOINT Right_Shin
		{
			OFFSET 0 -0.477856 0
			CHANNELS 1 Xrotation
			JOINT Right_Foot
			{
				OFFSET 0 -0.431952 0
				CHANNELS 2 Xrotation Zrotation
				JOINT Right_Toe
				{
					OFFSET 0 -0.0442 0.119
					CHANNELS 1 Xrotation
					End Site
					{
						OFFSET -0 -0 0.07
					}
				}
			}
		}
	}
}
MOTION
Frames: 12
Frame Time: 0.009975
-0.0945272 -0.0602019 0.0481368 3.38478e-013 5.12158e-008 -5.10999e-006 0 -0 0 0 -0 0 0 -0 0 -0.713027 0.271417 7.19275e-014 8.3241 -33.4945 8.64663 -13.0107 -31.6542 -111.571 -5.08735 -10.7573 -3.95782 -40.5316 -43.5896 103.283 -7.10789 -4.81548 2.69559 -7.40342 -2.98992 -6.72733 5.89092 0.508958 -5.4973 -5.3917 11.1257 1.19015 -12.1062 -9.35422 19.4153 3.33565 -41.2194 -1.46018 -3.29975 20.9862 -15.3052 19.5413 29.2551 49.9844 9.54538 -8.40965 -10.9358 55.0335 39.5843 92.1277 7.00861 2.15936 0.435141 5.99893 1.51424 4.41792 -9.00049 -0.19506 2.27197 5.35469 -19.0086 -0.705506 6.55828 2.97618 -30.7361 -2.78095 40.4844 -27.709 0.564103 -1.08783 -0.0107099 0.0240216 -0.588023 1.08789 0 0.57551 -1.08783 -0.0109265 1.21346e-006 -0.575407 1.08789 0 
-0.0945365 -0.0602023 0.0482009 -4.97875e-014 5.14438e-008 -5.10999e-006 0 -0 0 0 -0 0 0 -0 0 -0.71303 0.271414 -7.98685e-014 8.3241 -33.4945 8.64663 -13.0107 -31.6542 -111.571 -5.08735 -10.7573 -3.95782 -40.5316 -43.5896 103.283 -7.10789 -4.81548 2.69559 -7.40342 -2.98992 -6.72733 5.89092 0.508958 -5.4973 -5.3917 11.1257 1.19015 -12.1062 -9.35422 19.4153 3.33565 -41.2194 -1.46018 -3.26359 20.7511 -14.9276 19.0191 29.331 51.5024 9.4408 -8.31751 -10.816 54.689 39.351 91.7563 7.39615 2.68908 0.690707 6.24512 2.06859 4.72457 -8.81913 0.260963 2.88339 5.81351 -18.7995 -0.0725683 7.07508 3.39506 -30.2745 -2.18618 40.3769 -26.5458 0.568142 -1.08724 -0.0107808 0.0240216 -0.592061 1.0873 0 0.579548 -1.08724 -0.0109972 8.45236e-007 -0.579445 1.0873 0 
-0.0945621 -0.0602029 0.0483075 1.52908e-012 5.19399e-008 -5.10998e-006 0 -0 0 0 -0 0 0 -0 0 -0.713036 0.271447 -1.09915e-012 8.3241 -33.4945 8.64663 -13.0107 -31.6542 -111.571 -5.08735 -10.7573 -3.95782 -40.5316 -43.5896 103.283 -7.10789 -4.81548 2.69559 -7.40342 -2.98992 -6.72733 5.89092 0.508958 -5.4973 -5.3917 11.1257 1.19015 -12.1062 -9.35422 19.4153 3.33565 -41.2194 -1.46018 -3.22394 20.507 -14.3543 18.3026 29.4506 53.3158 9.32609 -8.21645 -10.6846 54.3445 39.1177 91.385 7.78368 3.21879 0.946272 6.49132 2.62294 5.03122 -8.63777 0.716985 3.49481 6.27234 -18.5904 0.560371 7.59188 3.81393 -29.8129 -1.59141 40.2695 -25.3825 0.574855 -1.08563 -0.010892 0.0240216 -0.598774 1.08569 0 0.586261 -1.08563 -0.0111081 2.54851e-006 -0.586159 1.08569 0 
-0.0945985 -0.0602037 0.0484432 9.5234e-013 5.26469e-008 -5.10997e-006 0 -0 0 0 -0 0 0 -0 0 -0.713046 0.271524 -2.42697e-012 8.3241 -33.4945 8.64663 -13.0107 -31.6542 -111.571 -5.08735 -10.7573 -3.95782 -40.5316 -43.5896 103.283 -7.10789 -4.81548 2.69559 -7.40342 -2.98992 -6.72733 5.89092 0.508958 -5.4973 -5.3917 11.1257 1.19015 -12.1062 -9.35422 19.4153 3.33565 -41.2194 -1.46018 -3.18121 20.2564 -13.657 17.4954 29.6211 55.1944 9.20247 -8.10754 -10.543 54.0001 38.8844 91.0136 8.17121 3.7485 1.20184 6.73751 3.1773 5.33787 -8.4564 1.17301 4.10623 6.73116 -18.3813 1.19331 8.10868 4.2328 -29.3514 -0.996639 40.1621 -24.2193 0.583401 -1.08334 -0.0110305 0.0240216 -0.607318 1.0834 0 0.594807 -1.08333 -0.0112462 3.41509e-006 -0.594703 1.0834 0 
-0.0946415 -0.0602044 0.0485949 8.75745e-013 5.347e-008 -5.10995e-006 0 -0 0 0 -0 0 0 -0 0 -0.713058 0.271632 -3.33862e-012 8.3241 -33.4945 8.64663 -13.0107 -31.6542 -111.571 -5.08735 -10.7573 -3.95782 -40.5316 -43.5896 103.283 -7.10789 -4.81548 2.69559 -7.40342 -2.98992 -6.72733 5.89092 0.508958 -5.4973 -5.3917 11.1257 1.19015 -12.1062 -9.35422 19.4153 3.33565 -41.2194 -1.46018 -3.13574 19.9986 -12.8861 16.6591 29.8334 57.0433 9.07095 -7.99167 -10.3923 53.6556 38.6512 90.6422 8.55874 4.27821 1.4574 6.98371 3.73165 5.64452 -8.27504 1.62903 4.71765 7.18999 -18.1722 1.82625 8.62548 4.65168 -28.8898 -0.40187 40.0546 -23.056 0.592959 -1.08063 -0.0111833 0.0240216 -0.616875 1.08069 0 0.604366 -1.08063 -0.0113984 1.2376e-006 -0.60426 1.08069 0 
-0.0946888 -0.0602053 0.0487562 -1.00939e-012 5.43575e-008 -5.10994e-006 0 -0 0 0 -0 0 0 -0 0 -0.713072 0.271757 -3.97937e-012 8.3241 -33.4945 8.64663 -13.0107 -31.6542 -111.571 -5.08735 -10.7573 -3.95782 -40.5316 -43.5896 103.283 -7.10789 -4.81548 2.69559 -7.40342 -2.98992 -6.72733 5.89092 0.508958 -5.4973 -5.3917 11.1257 1.19015 -12.1062 -9.35422 19.4153 3.33565 -41.2194 -1.46018 -3.08783 19.7329 -12.0647 15.818 30.0832 58.8417 8.93237 -7.86957 -10.2335 53.3111 38.4179 90.2709 8.94628 4.80793 1.71297 7.2299 4.286 5.95117 -8.09367 2.08505 5.32907 7.64881 -17.9631 2.45919 9.14228 5.07055 -28.4283 0.192901 39.9472 -21.8928 0.603115 -1.07765 -0.0113434 0.0240216 -0.62703 1.07771 0 0.614522 -1.07765 -0.011558 1.1712e-006 -0.614414 1.07771 0 
-0.0947399 -0.0602061 0.0489239 1.01632e-012 5.5287e-008 -5.10993e-006 0 -0 0 0 -0 0 0 -0 0 -0.713086 0.271895 -4.50572e-012 8.3241 -33.4945 8.64663 -13.0107 -31.6542 -111.571 -5.08735 -10.7573 -3.95782 -40.5316 -43.5896 103.283 -7.10789 -4.81548 2.69559 -7.40342 -2.98992 -6.72733 5.89092 0.508958 -5.4973 -5.3917 11.1257 1.19015 -12.1062 -9.35422 19.4153 3.33565 -41.2194 -1.46018 -3.03774 19.4593 -11.2037 14.983 30.3684 60.5866 8.78745 -7.7419 -10.0675 52.9667 38.1846 89.8995 9.33381 5.33764 1.96854 7.4761 4.84035 6.25782 -7.91231 2.54107 5.94049 8.10763 -17.754 3.09213 9.65908 5.48942 -27.9667 0.787669 39.8398 -20.7295 0.613679 -1.07443 -0.0115077 0.0240216 -0.637592 1.0745 0 0.625084 -1.07443 -0.0117215 2.41484e-006 -0.624977 1.0745 0 
-0.0947943 -0.060207 0.0490965 6.72623e-014 5.62474e-008 -5.10991e-006 0 -0 0 0 -0 0 0 -0 0 -0.7131 0.272043 -4.97638e-012 8.3241 -33.4945 8.64663 -13.0107 -31.6542 -111.571 -5.08735 -10.7573 -3.95782 -40.5316 -43.5896 103.283 -7.10789 -4.81548 2.69559 -7.40342 -2.98992 -6.72733 5.89092 0.508958 -5.4973 -5.3917 11.1257 1.19015 -12.1062 -9.35422 19.4153 3.33565 -41.2194 -1.46018 -2.98566 19.178 -10.309 14.1603 30.6875 62.2787 8.63681 -7.60919 -9.89493 52.6222 37.9514 89.5281 9.72134 5.86735 2.2241 7.72229 5.3947 6.56447 -7.73094 2.9971 6.55191 8.56646 -17.5449 3.72506 10.1759 5.9083 -27.5052 1.38244 39.7323 -19.5663 0.624551 -1.071 -0.0116742 0.0240216 -0.648464 1.07107 0 0.635956 -1.071 -0.0118874 2.83165e-006 -0.635848 1.07107 0 
-0.0948519 -0.0602079 0.049273 -5.01258e-014 5.7232e-008 -5.10989e-006 0 -0 0 0 -0 0 0 -0 0 -0.713115 0.272202 -5.41314e-012 8.3241 -33.4945 8.64663 -13.0107 -31.6542 -111.571 -5.08735 -10.7573 -3.95782 -40.5316 -43.5896 103.283 -7.10789 -4.81548 2.69559 -7.40342 -2.98992 -6.72733 5.89092 0.508958 -5.4973 -5.3917 11.1257 1.19015 -12.1062 -9.35422 19.4153 3.33565 -41.2194 -1.46018 -2.9318 18.8896 -9.38436 13.3543 31.0397 63.9187 8.481 -7.47191 -9.71642 52.2777 37.7181 89.1568 10.1089 6.39706 2.47967 7.96849 5.94905 6.87112 -7.54958 3.45312 7.16333 9.02528 -17.3358 4.358 10.6927 6.32717 -27.0436 1.97721 39.6249 -18.403 0.635671 -1.06738 -0.0118418 0.0240216 -0.659582 1.06745 0 0.647077 -1.06737 -0.0120543 2.29489e-006 -0.646967 1.06745 0 
-0.0949125 -0.0602088 0.0494528 4.78388e-013 5.82364e-008 -5.10987e-006 0 -0 0 0 -0 0 0 -0 0 -0.71313 0.27237 -5.82551e-012 8.3241 -33.4945 8.64663 -13.0107 -31.6542 -111.571 -5.08735 -10.7573 -3.95782 -40.5316 -43.5896 103.283 -7.10789 -4.81548 2.69559 -7.40342 -2.98992 -6.72733 5.89092 0.508958 -5.4973 -5.3917 11.1257 1.19015 -12.1062 -9.35422 19.4153 3.33565 -41.2194 -1.46018 -2.87631 18.5945 -8.43253 12.5684 31.4242 65.5072 8.32049 -7.3305 -9.53252 51.9333 37.4848 88.7854 10.4964 6.92678 2.73523 8.21468 6.50341 7.17777 -7.36821 3.90914 7.77475 9.48411 -17.1267 4.99094 11.2095 6.74604 -26.5821 2.57198 39.5174 -17.2397 0.646993 -1.06356 -0.0120097 0.0240216 -0.670903 1.06363 0 0.6584 -1.06356 -0.0122214 1.70755e-006 -0.658288 1.06363 0 
-0.0949761 -0.0602098 0.0496352 2.27518e-013 5.92573e-008 -5.10986e-006 0 -0 0 0 -0 0 0 -0 0 -0.713146 0.272547 -6.21753e-012 8.3241 -33.4945 8.64663 -13.0107 -31.6542 -111.571 -5.08735 -10.7573 -3.95782 -40.5316 -43.5896 103.283 -7.10789 -4.81548 2.69559 -7.40342 -2.98992 -6.72733 5.89092 0.508958 -5.4973 -5.3917 11.1257 1.19015 -12.1062 -9.35422 19.4153 3.33565 -41.2194 -1.46018 -2.81934 18.2933 -7.45564 11.8055 31.8402 67.0444 8.15569 -7.18531 -9.34372 51.5888 37.2515 88.414 10.8839 7.45649 2.9908 8.46088 7.05776 7.48442 -7.18685 4.36516 8.38617 9.94293 -16.9176 5.62388 11.7263 7.16492 -26.1205 3.16675 39.41 -16.0765 0.658484 -1.05956 -0.012177 0.0240216 -0.682393 1.05963 0 0.669891 -1.05955 -0.0123879 1.70755e-006 -0.669778 1.05963 0 
-0.0950424 -0.0602107 0.0498199 -1.15141e-013 6.02917e-008 -5.10984e-006 0 -0 0 0 -0 0 0 -0 0 -0.713162 0.272733 -6.59242e-012 8.3241 -33.4945 8.64663 -13.0107 -31.6542 -111.571 -5.08735 -10.7573 -3.95782 -40.5316 -43.5896 103.283 -7.10789 -4.81548 2.69559 -7.40342 -2.98992 -6.72733 5.89092 0.508958 -5.4973 -5.3917 11.1257 1.19015 -12.1062 -9.35422 19.4153 3.33565 -41.2194 -1.46018 -2.76102 17.9863 -6.45548 11.0683 32.2872 68.5307 7.98699 -7.03668 -9.15044 51.2443 37.0183 88.0427 11.2715 7.9862 3.24636 8.70707 7.61211 7.79107 -7.00549 4.82118 8.99759 10.4018 -16.7085 6.25682 12.2431 7.58379 -25.659 3.76152 39.3026 -14.9132 0.670115 -1.05538 -0.0123432 0.0240216 -0.694023 1.05545 0 0.681522 -1.05537 -0.0125533 9.05e-007 -0.681407 1.05545 0 
